<svg width="14" height="21" viewBox="0 0 14 21" fill="none" xmlns="http://www.w3.org/2000/svg">
<path opacity="0.5" d="M3.9377 8.49105L0.885777 10L3.92409 11.5362L3.9377 8.49105Z" fill="#E8CA5F"/>
<path opacity="0.5" d="M13.5057 10.0561L7.24316 0.0281982L10.4725 8.52009L13.5057 10.0561Z" fill="#E2BD37"/>
<path opacity="0.5" d="M7.24272 0.0283782L0.885997 9.99992L3.93767 8.49108L7.24272 0.0283782Z" fill="#EED787"/>
<path opacity="0.5" d="M10.4586 11.565L7.15357 20.0277L13.5055 10.0562L10.4586 11.565Z" fill="#B5972C"/>
<path opacity="0.5" d="M0.885742 10.0001L7.15313 20.028L3.92381 11.5361L0.885742 10.0001Z" fill="#E2BD37"/>
<path opacity="0.5" d="M10.4581 11.5653L13.5052 10.0563L10.4717 8.52017L10.4581 11.5653Z" fill="#CBAA32"/>
<path opacity="0.5" d="M10.4721 8.5205L7.24278 0.0286017L3.93772 8.49131L10.4721 8.5205Z" fill="#E8CA5F"/>
<path opacity="0.5" d="M3.92383 11.5358L7.15315 20.0277L10.4582 11.565L3.92383 11.5358Z" fill="#C0A648"/>
<path opacity="0.5" d="M10.4719 8.52019L3.9375 8.491L3.9239 11.5363L10.4583 11.5655L10.4719 8.52019Z" fill="#E2BD37"/>
<g clip-path="url(#clip0_1812_410)">
<path d="M7.15677 6.15848C6.52176 6.15848 6.00071 7.36103 5.94727 8.89324C6.14256 9.01147 6.32707 9.13779 6.48618 9.25821C6.68489 9.40862 6.86957 9.56636 7.03917 9.73005C7.22334 9.55267 7.43382 9.38234 7.66941 9.22063C7.91627 9.05119 8.15427 8.91585 8.36289 8.81044C8.29394 7.31793 7.78028 6.15848 7.15677 6.15848Z" fill="white"/>
<path d="M9.72662 8.91861C9.32737 8.91861 8.17408 9.38384 7.4082 10.1243C7.72367 10.4991 7.98873 10.9301 8.12733 11.4042C8.28571 11.946 8.37345 12.5254 8.37436 13.0357C8.37457 13.1578 8.36987 13.2741 8.3606 13.385C8.68167 12.8914 8.92289 12.2494 8.92289 11.5557C8.92289 10.0319 10.3443 8.91861 9.72662 8.91861Z" fill="white"/>
<path d="M7.60932 11.5556C7.18175 10.0932 5.18636 8.91861 4.56864 8.91861C3.95092 8.91861 5.37237 10.0319 5.37237 11.5556C5.37237 13.0793 6.53598 14.3538 7.15369 14.3538C7.93004 14.3538 7.98399 12.8372 7.60932 11.5556Z" fill="white"/>
</g>
<defs>
<clipPath id="clip0_1812_410">
<rect width="8.19514" height="8.19514" fill="white" transform="translate(3.0498 6.15851)"/>
</clipPath>
</defs>
</svg>
