<svg width="13" height="21" viewBox="0 0 13 21" fill="none" xmlns="http://www.w3.org/2000/svg">
<path opacity="0.5" d="M3.12616 8.6303L0.0742536 10.1393L3.11256 11.6754L3.12616 8.6303Z" fill="#DDDDDD"/>
<path opacity="0.5" d="M12.6942 10.1955L6.43164 0.167603L9.66096 8.65947L12.6942 10.1955Z" fill="#CCCCCC"/>
<path opacity="0.5" d="M6.43118 0.167782L0.0744733 10.1393L3.12613 8.63046L6.43118 0.167782Z" fill="#E8E8E8"/>
<path opacity="0.5" d="M9.6471 11.7043L6.34205 20.1669L12.6939 10.1954L9.6471 11.7043Z" fill="#6F6F6F"/>
<path opacity="0.5" d="M0.0742188 10.1395L6.34159 20.1674L3.11228 11.6755L0.0742188 10.1395Z" fill="#CCCCCC"/>
<path opacity="0.5" d="M9.64655 11.7047L12.6936 10.1957L9.66016 8.65961L9.64655 11.7047Z" fill="#AFAFAF"/>
<path opacity="0.5" d="M9.66056 8.65991L6.43124 0.168036L3.1262 8.63072L9.66056 8.65991Z" fill="#DDDDDD"/>
<path opacity="0.5" d="M3.1123 11.6753L6.34162 20.1671L9.64667 11.7045L3.1123 11.6753Z" fill="#AFAFAF"/>
<path opacity="0.5" d="M9.66034 8.65944L3.12598 8.63025L3.11237 11.6755L9.64674 11.7047L9.66034 8.65944Z" fill="#CCCCCC"/>
<path fill-rule="evenodd" clip-rule="evenodd" d="M5.95114 12.1104L5.95114 11.0052C5.58289 11.0347 5.02067 10.8374 4.47891 10.4581C3.70493 9.91613 3.49805 8.87619 3.49805 8.87619C3.49805 8.87619 4.54603 8.71492 5.32001 9.25687C5.56866 9.43098 5.78276 9.62225 5.95114 9.81269L5.95114 9.07852C5.74905 8.77388 5.61529 8.24364 5.61529 7.64049C5.61529 6.69564 6.3485 5.92969 6.3485 5.92969C6.3485 5.92969 7.0817 6.69564 7.0817 7.64049C7.0817 8.22047 6.95801 8.73304 6.76883 9.04243L6.76883 9.82607C6.93896 9.63122 7.15724 9.43506 7.41172 9.25687C8.1857 8.71492 9.23368 8.87619 9.23368 8.87619C9.23368 8.87619 9.0268 9.91613 8.25282 10.4581C7.70526 10.8415 7.1368 11.0389 6.76883 11.0042L6.76883 12.1238C6.93896 11.9289 7.15724 11.7328 7.41172 11.5546C8.1857 11.0126 9.23368 11.1739 9.23368 11.1739C9.23368 11.1739 9.0268 12.2139 8.25282 12.7558C7.66106 13.1701 7.0449 13.3673 6.68377 13.289L6.04796 13.289C5.68682 13.3673 5.07067 13.1701 4.47891 12.7558C3.70493 12.2139 3.49805 11.1739 3.49805 11.1739C3.49805 11.1739 4.54603 11.0126 5.32001 11.5546C5.56866 11.7287 5.78276 11.92 5.95114 12.1104Z" fill="white"/>
</svg>
