<svg width="13" height="21" viewBox="0 0 13 21" fill="none" xmlns="http://www.w3.org/2000/svg">
<path opacity="0.5" d="M3.0959 8.49068L0.0439802 9.99964L3.0823 11.5358L3.0959 8.49068Z" fill="#4DDA9D"/>
<path opacity="0.5" d="M12.663 10.0561L6.40039 0.0281982L9.62972 8.52009L12.663 10.0561Z" fill="#21D184"/>
<path opacity="0.5" d="M6.40093 0.0284088L0.0441997 9.99995L3.09587 8.49111L6.40093 0.0284088Z" fill="#7AE3B5"/>
<path opacity="0.5" d="M9.61726 11.5654L12.6643 10.0564L9.63086 8.52023L9.61726 11.5654Z" fill="#1EBC77"/>
<path opacity="0.5" d="M9.6303 8.52031L6.40098 0.0284186L3.09592 8.49112L9.6303 8.52031Z" fill="#4DDA9D"/>
<path opacity="0.5" d="M9.63009 8.51982L3.0957 8.49063L3.0821 11.5359L9.61648 11.5651L9.63009 8.51982Z" fill="#21D184"/>
<path opacity="0.5" d="M9.61684 11.5653L6.31178 20.028L12.6637 10.0564L9.61684 11.5653Z" fill="#1AA76A"/>
<path opacity="0.5" d="M0.0439453 9.99991L6.31134 20.0278L3.08201 11.5359L0.0439453 9.99991Z" fill="#21D184"/>
<path opacity="0.5" d="M3.08203 11.5355L6.31136 20.0274L9.61641 11.5647L3.08203 11.5355Z" fill="#1EBC77"/>
<path d="M5.39453 8.91976C5.39448 7.86785 6.47199 6.71347 6.47199 6.71347C6.47199 6.71347 7.56543 7.78389 7.56543 8.91976C7.56543 10.1976 6.47199 11.373 6.47199 11.373C6.47199 11.373 5.39459 10.3445 5.39453 8.91976Z" fill="white"/>
<path d="M4.13512 12.5005C3.53288 11.5895 3.80518 10.1193 3.80518 10.1193C3.80518 10.1193 5.36492 10.5688 6.01518 11.5525C6.7467 12.6591 6.47262 14.1545 6.47262 14.1545C6.47262 14.1545 4.95081 13.7343 4.13512 12.5005Z" fill="white"/>
<path d="M8.82387 12.5009C9.4261 11.5899 9.15381 10.1197 9.15381 10.1197C9.15381 10.1197 7.59407 10.5692 6.94381 11.5529C6.21228 12.6595 6.48637 14.1549 6.48637 14.1549C6.48637 14.1549 8.00818 13.7347 8.82387 12.5009Z" fill="white"/>
<rect x="8.87695" y="9.15649" width="0.312367" height="1.38525" rx="0.156184" fill="white"/>
<rect x="6.32324" y="5.79001" width="0.312367" height="1.38525" rx="0.156184" fill="white"/>
<rect x="3.76758" y="9.15649" width="0.312367" height="1.38525" rx="0.156184" fill="white"/>
</svg>
