<svg width="14" height="21" viewBox="0 0 14 21" fill="none" xmlns="http://www.w3.org/2000/svg">
<path opacity="0.5" d="M4.00706 8.49074L0.955113 9.99971L3.99346 11.5359L4.00706 8.49074Z" fill="#73BFAA"/>
<path opacity="0.5" d="M13.5751 10.0562L7.3125 0.0281982L10.5419 8.52017L13.5751 10.0562Z" fill="#50AF95"/>
<path opacity="0.5" d="M7.31211 0.0284395L0.955332 10.0001L4.00703 8.49122L7.31211 0.0284395Z" fill="#96CFBF"/>
<path opacity="0.5" d="M10.528 11.565L7.22291 20.0277L13.5749 10.0561L10.528 11.565Z" fill="#408C77"/>
<path opacity="0.5" d="M0.955078 9.99997L7.22252 20.028L3.99317 11.536L0.955078 9.99997Z" fill="#50AF95"/>
<path opacity="0.5" d="M10.5284 11.5654L13.5755 10.0564L10.542 8.52026L10.5284 11.5654Z" fill="#489E86"/>
<path opacity="0.5" d="M10.5415 8.52039L7.31214 0.0284187L4.00705 8.4912L10.5415 8.52039Z" fill="#73BFAA"/>
<path opacity="0.5" d="M10.5413 8.51988L4.00684 8.49069L3.99323 11.536L10.5277 11.5652L10.5413 8.51988Z" fill="#50AF95"/>
<path opacity="0.5" d="M3.99316 11.5356L7.22252 20.0275L10.5276 11.5647L3.99316 11.5356Z" fill="#489E86"/>
<path fill-rule="evenodd" clip-rule="evenodd" d="M3.11914 12.0057C3.11914 12.0057 3.47671 11.735 3.62117 11.5135C3.78866 11.2567 3.83123 11.1021 3.87287 10.9508C3.91814 10.7863 3.96233 10.6258 4.16485 10.3421C4.39114 10.0253 4.69829 9.96981 5.00613 9.91423C5.22719 9.87431 5.44861 9.83434 5.64071 9.69745C5.82415 9.56672 5.86738 9.43618 5.91778 9.28398C5.9715 9.12175 6.03338 8.93491 6.28186 8.69697C6.53309 8.45641 6.73352 8.3895 6.92048 8.32708C7.06323 8.27943 7.19813 8.23439 7.34181 8.11668C7.55016 7.94598 7.61801 7.79986 7.68901 7.64696C7.76944 7.47373 7.85393 7.29179 8.15134 7.05554C8.36535 6.88554 8.59498 6.84709 8.82545 6.8085C9.05091 6.77075 9.27717 6.73287 9.4904 6.57156C9.67716 6.43029 9.92514 6.15857 9.92514 6.15857C9.92514 6.15857 9.83268 6.60737 9.6433 7.24782C9.49482 7.17715 9.32866 7.13759 9.15327 7.13759C8.5228 7.13759 8.01171 7.64868 8.01171 8.27915C8.01171 8.79926 8.35954 9.23813 8.83528 9.37583C8.53336 9.99288 8.16686 10.576 7.73353 10.9942C6.81471 11.8808 5.04675 12.6932 4.92662 12.6708C4.87892 12.6619 4.74285 12.5955 4.56936 12.5108C4.3059 12.3823 3.95614 12.2116 3.6985 12.1362C3.48468 12.0737 3.11914 12.0057 3.11914 12.0057ZM8.83528 9.37583C8.93622 9.40504 9.04291 9.4207 9.15327 9.4207C9.78373 9.4207 10.2948 8.90961 10.2948 8.27915C10.2948 7.82408 10.0285 7.4312 9.6433 7.24782C9.46305 7.85743 9.19499 8.64068 8.83528 9.37583ZM5.23824 12.3559C5.8687 12.3559 6.37979 11.8448 6.37979 11.2143C6.37979 10.5838 5.8687 10.0728 5.23824 10.0728C4.60777 10.0728 4.09668 10.5838 4.09668 11.2143C4.09668 11.8448 4.60777 12.3559 5.23824 12.3559ZM8.33684 9.74654C8.33684 10.2869 7.89876 10.725 7.35836 10.725C6.81796 10.725 6.37988 10.2869 6.37988 9.74654C6.37988 9.20615 6.81796 8.76807 7.35836 8.76807C7.89876 8.76807 8.33684 9.20615 8.33684 9.74654Z" fill="white"/>
<path d="M10.4045 7.35419C10.3121 6.85991 9.9263 6.15866 9.9263 6.15866C9.9263 6.15866 8.95613 6.98198 8.57861 7.68025C8.27731 8.23755 8.4944 8.74551 8.07867 9.22357C7.85585 9.47979 7.62051 9.50251 7.38308 9.74526C6.96337 10.1744 7.14571 10.7634 6.64403 11.0929C6.28611 11.3281 5.94228 11.1272 5.57892 11.3538C4.99889 11.7156 5.19607 12.3766 4.75291 12.8971C4.54664 13.1394 4.16602 13.4623 4.16602 13.4623C4.16602 13.4623 4.69212 13.3976 5.03549 13.4623C5.73621 13.5943 6.22843 13.7906 6.8614 13.4623C7.44167 13.1613 7.38574 12.5606 7.88303 12.1363C8.36286 11.7269 8.9106 11.8532 9.29593 11.3538C9.69088 10.842 9.43069 10.3387 9.6872 9.74526C9.90035 9.25214 10.2679 9.09102 10.4045 8.57146C10.5254 8.11171 10.4919 7.82147 10.4045 7.35419Z" fill="white"/>
</svg>
