<?xml version="1.0" encoding="UTF-8"?>
<svg xmlns="http://www.w3.org/2000/svg" xmlns:xlink="http://www.w3.org/1999/xlink" width="120px" height="107px" viewBox="0 0 120 107" version="1.1">
<defs>
<linearGradient id="linear0" gradientUnits="userSpaceOnUse" x1="209.7147" y1="350.5264" x2="2362.7148" y2="1912.5264" gradientTransform="matrix(0.048,0,0,-0.0483288,0,106.898021)">
<stop offset="0" style="stop-color:rgb(65.490196%,14.901961%,75.686275%);stop-opacity:1;"/>
<stop offset="0.8784" style="stop-color:rgb(50.196078%,23.137255%,87.45098%);stop-opacity:1;"/>
<stop offset="1" style="stop-color:rgb(48.235294%,24.705882%,89.411765%);stop-opacity:1;"/>
</linearGradient>
</defs>
<g id="surface1">
<path style=" stroke:none;fill-rule:nonzero;fill:url(#linear0);" d="M 89.089844 75.34375 L 117.550781 58.816406 C 119.039062 57.945312 120 56.304688 120 54.5625 L 120 21.457031 C 120 19.71875 119.039062 18.074219 117.550781 17.203125 L 89.089844 0.675781 C 87.601562 -0.191406 85.726562 -0.191406 84.191406 0.675781 L 55.726562 17.203125 C 54.238281 18.074219 53.28125 19.71875 53.28125 21.457031 L 53.28125 80.613281 L 33.3125 92.210938 L 13.34375 80.613281 L 13.34375 57.414062 L 33.3125 45.816406 L 46.464844 53.453125 L 46.464844 37.890625 L 35.761719 31.65625 C 35.039062 31.21875 34.175781 30.980469 33.3125 30.980469 C 32.449219 30.980469 31.632812 31.21875 30.863281 31.65625 L 2.398438 48.183594 C 0.910156 49.054688 -0.046875 50.695312 -0.046875 52.4375 L -0.046875 85.542969 C -0.046875 87.28125 0.910156 88.925781 2.398438 89.796875 L 30.863281 106.324219 C 32.351562 107.191406 34.222656 107.191406 35.761719 106.324219 L 64.222656 89.796875 C 65.710938 88.925781 66.671875 87.28125 66.671875 85.542969 L 66.671875 26.386719 L 67.054688 26.195312 L 86.640625 14.789062 L 106.609375 26.386719 L 106.609375 49.585938 L 86.640625 61.183594 L 73.488281 53.546875 L 73.488281 69.109375 L 84.191406 75.34375 C 85.679688 76.214844 87.550781 76.214844 89.089844 75.34375 Z M 89.089844 75.34375 "/>
</g>
</svg>
