<svg xmlns="http://www.w3.org/2000/svg" xml:space="preserve" width="2500" height="2500">
  <g style="display:inline" transform="matrix(1.00753 0 0 1.00753 162.088 288.339)">
    <linearGradient id="a" gradientUnits="userSpaceOnUse" x1="209.715" y1="350.526" x2="2362.715" y2="1912.526" gradientTransform="matrix(.86281 0 0 -.86281 .863 1908.016)">
      <stop offset="0" style="stop-color:#a726c1" />
      <stop offset=".878" style="stop-color:#803bdf" />
      <stop offset="1" style="stop-color:#7b3fe4" />
    </linearGradient>
    <path d="m1602.244 1344.694 511.648-295.082c26.747-15.53 44.003-44.866 44.003-75.928V382.658c0-31.062-17.256-60.397-44.003-75.928L1602.244 11.648c-26.748-15.53-60.397-15.53-88.007 0L1002.589 306.73c-26.748 15.53-44.004 44.866-44.004 75.928V1438.74l-358.93 207.076-358.93-207.075v-414.15l358.93-207.076 236.41 136.325V676.014L643.659 564.71c-12.942-7.765-28.472-12.08-44.003-12.08-15.53 0-30.198 4.315-44.004 12.08L44.003 859.793C17.256 875.323 0 904.66 0 935.721v591.026c0 31.062 17.256 60.397 44.003 75.928l511.648 295.082c26.748 15.53 60.397 15.53 88.007 0l511.649-295.082c26.747-15.53 44.003-44.866 44.003-75.928V470.664l6.902-3.45 352.028-203.625 358.93 207.075v414.15l-358.93 207.076-236.41-136.325v277.826l192.407 111.303c26.747 15.53 60.397 15.53 88.007 0z" style="fill:url(#a);stroke-width:.862813" />
  </g>
</svg>