<svg xmlns="http://www.w3.org/2000/svg" xmlns:xlink="http://www.w3.org/1999/xlink" version="1.1" width="1000" height="1000" viewBox="0 0 1000 1000" xml:space="preserve">
<desc>Created with Fabric.js 3.5.0</desc>
<defs>
</defs>
<rect x="0" y="0" width="100%" height="100%" fill="#ffffff"/>
<g transform="matrix(0.0138 0 0 0.0138 17.7569 15.7697)" id="930596">
<linearGradient id="SVGID_4" gradientUnits="userSpaceOnUse" gradientTransform="matrix(1 0 0 -1 0 2211.8899)" x1="209.7147" y1="350.5264" x2="2362.7148" y2="1912.5264">
<stop offset="0%" style="stop-color:rgb(167,38,193);stop-opacity: 1"/>
<stop offset="87.83999999999999%" style="stop-color:rgb(128,59,223);stop-opacity: 1"/>
<stop offset="100%" style="stop-color:rgb(123,63,228);stop-opacity: 1"/>
</linearGradient>
<path style="stroke: none; stroke-width: 1; stroke-dasharray: none; stroke-linecap: butt; stroke-dashoffset: 0; stroke-linejoin: miter; stroke-miterlimit: 4; is-custom-font: none; font-file-url: none; fill: url(#SVGID_4); fill-rule: nonzero; opacity: 1;" vector-effect="non-scaling-stroke" transform=" translate(-1249.5, -1107)" d="M 1856 1559 l 593 -342 c 31 -18 51 -52 51 -88 V 444 c 0 -36 -20 -70 -51 -88 L 1856 14 c -31 -18 -70 -18 -102 0 l -593 342 c -31 18 -51 52 -51 88 v 1224 l -416 240 l -416 -240 v -480 l 416 -240 l 274 158 V 784 L 745 655 c -15 -9 -33 -14 -51 -14 s -35 5 -51 14 L 50 997 c -31 18 -51 52 -51 88 v 685 c 0 36 20 70 51 88 l 593 342 c 31 18 70 18 102 0 l 593 -342 c 31 -18 51 -52 51 -88 V 546 l 8 -4 l 408 -236 l 416 240 v 480 l -416 240 l -274 -158 v 322 l 223 129 C 1785 1577 1824 1577 1856 1559 L 1856 1559 z" stroke-linecap="round"/>
</g>
</svg>